<svg width="40" height="40" viewBox="0 0 40 40" fill="none" xmlns="http://www.w3.org/2000/svg">
<circle cx="20" cy="20" r="19.5" stroke="#0F805D"/>
<path d="M9 15.926C9 15.2219 9.43869 14.8422 10.3161 14.787L13.697 14.8077C13.9239 14.8077 14.0751 14.9112 14.1508 15.1183C14.4987 16.1538 14.8882 17.0478 15.3194 17.8003C15.7505 18.5528 16.314 19.4191 17.0098 20.3994C17.0703 20.5237 17.1686 20.5858 17.3048 20.5858C17.4107 20.5858 17.4939 20.5375 17.5544 20.4408L17.6225 20.213L17.6451 16.6302C17.6451 16.3817 17.5809 16.216 17.4523 16.1331C17.3237 16.0503 17.0854 15.9882 16.7375 15.9467C16.4652 15.9053 16.3291 15.7535 16.3291 15.4911C16.3291 15.4359 16.3367 15.3945 16.3518 15.3669C16.6694 14.4694 17.5771 14.0207 19.0747 14.0207L20.3453 14C20.9202 14 21.3967 14.1312 21.7748 14.3935C22.153 14.6558 22.3421 15.07 22.3421 15.6361V20.3373C22.448 20.4063 22.5463 20.4408 22.6371 20.4408C22.864 20.4408 23.0607 20.3166 23.2271 20.068C24.891 17.9418 25.7911 16.5197 25.9272 15.8018C25.9272 15.788 25.9424 15.7535 25.9726 15.6982C26.0785 15.4911 26.2525 15.3116 26.4945 15.1598C26.7365 15.0079 26.9483 14.9043 27.1298 14.8491C27.1904 14.8215 27.2584 14.8077 27.3341 14.8077H30.8511L31.078 14.8284C31.3806 14.8284 31.615 14.9596 31.7814 15.2219C31.8419 15.3047 31.8835 15.3945 31.9062 15.4911C31.9289 15.5878 31.9441 15.6844 31.9516 15.7811C31.9592 15.8777 31.963 15.9329 31.963 15.9467V16.0917C31.8571 16.6578 31.5886 17.2618 31.1574 17.9038C30.7263 18.5459 30.178 19.2396 29.5124 19.9852C28.8468 20.7308 28.4308 21.2209 28.2644 21.4556C28.1282 21.6213 28.0602 21.7732 28.0602 21.9112C28.0602 22.0217 28.1207 22.146 28.2417 22.284L31.5545 26.0947C31.7361 26.3156 31.8268 26.5572 31.8268 26.8195C31.8268 27.1371 31.6907 27.3994 31.4184 27.6065C31.1461 27.8136 30.8209 27.931 30.4427 27.9586L30.0569 27.9793H26.608C26.5928 27.9793 26.5626 27.9827 26.5172 27.9896C26.4718 27.9965 26.4416 28 26.4264 28C26.0936 28 25.7835 27.8688 25.4961 27.6065C25.3902 27.4961 24.6793 26.6815 23.3632 25.1627C23.2876 25.0661 23.1817 24.9763 23.0455 24.8935C22.985 25.1144 22.9056 25.432 22.8073 25.8462C22.7089 26.2604 22.6371 26.5572 22.5917 26.7367L22.5236 27.0888C22.3724 27.572 22.0547 27.8619 21.5706 27.9586L21.253 27.9793H19.0293C17.7737 27.9793 16.522 27.4546 15.274 26.4053C14.026 25.356 12.9028 23.9995 11.9044 22.3358C10.906 20.6721 9.9757 18.7357 9.11345 16.5266C9.03782 16.3471 9 16.1469 9 15.926ZM22.6371 21.2899C22.3194 21.2899 22.032 21.2106 21.7748 21.0518C21.5177 20.893 21.3891 20.6755 21.3891 20.3994V15.6361C21.3891 15.36 21.3135 15.1632 21.1622 15.0459C21.0109 14.9285 20.7462 14.8698 20.368 14.8698L19.0747 14.9112C18.4242 14.9112 17.9326 15.0148 17.5998 15.2219C18.2654 15.5118 18.5982 15.9813 18.5982 16.6302V20.2751C18.5679 20.6203 18.4166 20.9068 18.1443 21.1346C17.8721 21.3624 17.5695 21.4763 17.2367 21.4763C16.7829 21.4763 16.435 21.2761 16.1929 20.8757C15.013 19.2465 14.1357 17.7002 13.5608 16.2367L13.3566 15.6982L10.3387 15.6775C10.1421 15.6775 10.0324 15.6879 10.0097 15.7086C9.98704 15.7293 9.9757 15.788 9.9757 15.8846C9.9757 16.0089 9.99083 16.14 10.0211 16.2781L10.4976 17.4379C11.7683 20.4339 13.1486 22.7949 14.6386 24.5207C16.1287 26.2465 17.5922 27.1095 19.0293 27.1095H21.2983C21.3891 27.1095 21.4572 27.0853 21.5026 27.037C21.5479 26.9887 21.5858 26.8955 21.616 26.7574L21.6614 26.5503L22.0925 24.7278C22.2135 24.4793 22.3194 24.3136 22.4102 24.2308C22.5766 24.0789 22.7732 24.003 23.0001 24.003C23.3632 24.003 23.7338 24.2032 24.112 24.6035L26.0407 26.8402C26.1617 27.0197 26.2903 27.1095 26.4264 27.1095H30.1704C30.6242 27.1095 30.8511 27.0059 30.8511 26.7988C30.8511 26.7298 30.8284 26.6607 30.783 26.5917L27.4929 22.8432C27.2357 22.5533 27.1072 22.2426 27.1072 21.9112C27.1072 21.5799 27.2282 21.2623 27.4702 20.9586C27.6669 20.6824 28.0488 20.2234 28.6161 19.5814C29.1834 18.9393 29.6788 18.3388 30.1023 17.7796C30.5259 17.2204 30.8057 16.713 30.9419 16.2574L31.01 15.9882C30.9948 15.9606 30.9873 15.9157 30.9873 15.8536C30.9873 15.7914 30.9797 15.7396 30.9646 15.6982H27.4021C27.1752 15.7811 26.9937 15.9053 26.8576 16.071L26.7214 16.4645C26.3432 17.4172 25.3524 18.8876 23.7489 20.8757C23.4313 21.1519 23.0607 21.2899 22.6371 21.2899Z" fill="#0F805D"/>
</svg>
