<svg width="40" height="40" viewBox="0 0 40 40" fill="none" xmlns="http://www.w3.org/2000/svg">
<circle cx="20" cy="20" r="19.5" stroke="#0F805D"/>
<path d="M23.2062 19.6907L18.7062 16.6907C18.6499 16.6532 18.5843 16.6316 18.5167 16.6283C18.449 16.625 18.3817 16.6401 18.3219 16.672C18.262 16.7032 18.2118 16.7503 18.1771 16.8082C18.1423 16.8662 18.1243 16.9326 18.125 17.0001V23.0001C18.1243 23.0677 18.1423 23.1341 18.1771 23.192C18.2118 23.2499 18.262 23.2971 18.3219 23.3282C18.3771 23.3568 18.4379 23.3728 18.5 23.3751C18.5741 23.3765 18.6466 23.3534 18.7062 23.3095L23.2062 20.3095C23.2585 20.2766 23.3016 20.2309 23.3315 20.1768C23.3614 20.1227 23.377 20.0619 23.377 20.0001C23.377 19.9383 23.3614 19.8775 23.3315 19.8234C23.3016 19.7693 23.2585 19.7237 23.2062 19.6907ZM18.875 22.297V17.7032L22.325 20.0001L18.875 22.297ZM29.6094 14.6376C29.5319 14.3518 29.3891 14.0878 29.1923 13.8666C28.9954 13.6453 28.7499 13.4728 28.475 13.3626C25.3062 12.1439 20.2156 12.1626 20 12.1626C19.7844 12.1626 14.6937 12.1439 11.525 13.3626C11.2501 13.4728 11.0046 13.6453 10.8077 13.8666C10.6109 14.0878 10.4681 14.3518 10.3906 14.6376C10.1562 15.547 9.875 17.2157 9.875 20.0001C9.875 22.7845 10.1562 24.4532 10.3906 25.3626C10.4681 25.6485 10.6109 25.9124 10.8077 26.1337C11.0046 26.3549 11.2501 26.5274 11.525 26.6376C14.6937 27.8564 19.7844 27.8376 20 27.8376H20.0656C20.7125 27.8376 25.4656 27.8001 28.475 26.6376C28.7499 26.5274 28.9954 26.3549 29.1923 26.1337C29.3891 25.9124 29.5319 25.6485 29.6094 25.3626C29.8438 24.4532 30.125 22.7845 30.125 20.0001C30.125 17.2157 29.8438 15.547 29.6094 14.6376ZM28.8781 25.1751C28.8331 25.3458 28.7485 25.5034 28.6312 25.6353C28.514 25.7673 28.3673 25.8697 28.2031 25.9345C25.1656 27.1064 20.0562 27.0876 20 27.0876C19.9438 27.0876 14.8344 27.1064 11.7969 25.9345C11.6327 25.8697 11.486 25.7673 11.3688 25.6353C11.2515 25.5034 11.1669 25.3458 11.1219 25.1751C10.8969 24.3032 10.625 22.7001 10.625 20.0001C10.625 17.3001 10.8969 15.697 11.1219 14.8251C11.1669 14.6545 11.2515 14.4968 11.3688 14.3649C11.486 14.233 11.6327 14.1305 11.7969 14.0657C14.8344 12.8939 19.9438 12.9126 20 12.9126C20.0562 12.9126 25.1656 12.8939 28.2031 14.0657C28.3673 14.1305 28.514 14.233 28.6312 14.3649C28.7485 14.4968 28.8331 14.6545 28.8781 14.8251C29.1031 15.697 29.375 17.3001 29.375 20.0001C29.375 22.7001 29.1031 24.3032 28.8781 25.1751Z" fill="#0F805D"/>
</svg>
