<svg width="16" height="20" viewBox="0 0 16 20" fill="none" xmlns="http://www.w3.org/2000/svg">
<path d="M4.56242 0.504381L3.70202 0.763581C2.93591 0.994616 2.25174 1.43969 1.73005 2.04643C1.20835 2.65316 0.870829 3.3963 0.757216 4.18838C0.400816 6.66998 1.19762 9.57158 3.11882 12.8992C5.03522 16.2184 7.14482 18.3568 9.46682 19.2928C10.2129 19.5935 11.0296 19.6736 11.8199 19.5236C12.6102 19.3736 13.3408 18.9999 13.9248 18.4468L14.5752 17.83C14.9976 17.4303 15.2604 16.8908 15.3149 16.3119C15.3694 15.7329 15.2119 15.1539 14.8716 14.6824L13.2444 12.4264C13.0244 12.1218 12.7146 11.8937 12.3585 11.7741C12.0023 11.6544 11.6177 11.6492 11.2584 11.7592L8.79721 12.5116L8.73362 12.5236C8.46242 12.5632 7.83601 11.9764 7.05602 10.6252C6.24002 9.21158 6.07202 8.38478 6.29642 8.17118L7.54802 7.00358C8.00571 6.57694 8.31836 6.01771 8.44211 5.40436C8.56585 4.79101 8.49448 4.15431 8.23802 3.58358L7.44361 1.81838C7.20474 1.28719 6.78085 0.860995 6.25097 0.619236C5.72109 0.377477 5.12137 0.336656 4.56362 0.504381H4.56242ZM6.35042 2.31038L7.14242 4.07558C7.29666 4.41786 7.33979 4.79986 7.26575 5.16791C7.19171 5.53597 7.00422 5.87157 6.72962 6.12758L5.47442 7.29638C4.67162 8.05718 4.93802 9.35558 6.01802 11.2252C7.03322 12.9844 7.95962 13.8532 8.95562 13.702L9.10442 13.6708L11.61 12.9064C11.7298 12.8696 11.8581 12.8712 11.9769 12.911C12.0957 12.9508 12.199 13.0268 12.2724 13.1284L13.8996 15.3844C14.07 15.6201 14.149 15.9097 14.1218 16.1993C14.0947 16.4889 13.9633 16.7588 13.752 16.9588L13.1004 17.5756C12.6832 17.9704 12.1615 18.2372 11.5971 18.3442C11.0328 18.4512 10.4496 18.3939 9.91682 18.1792C7.87922 17.3584 5.95322 15.406 4.15922 12.2992C2.36042 9.18518 1.63202 6.53678 1.94522 4.35878C2.02629 3.7929 2.26736 3.26196 2.64004 2.82848C3.01272 2.39499 3.50149 2.07702 4.04882 1.91198L4.90922 1.65278C5.18817 1.56896 5.48808 1.58946 5.75303 1.71045C6.01798 1.83145 6.22988 2.04468 6.34922 2.31038H6.35042Z"/>
</svg>
