<svg width="40" height="40" viewBox="0 0 40 40" fill="none" xmlns="http://www.w3.org/2000/svg">
<circle cx="20" cy="20" r="19.5" stroke="#0F805D"/>
<path d="M28.945 9.76505C28.7294 9.58633 28.4694 9.46928 28.1927 9.42632C27.9159 9.38337 27.6327 9.4161 27.373 9.52105L9.45602 16.7541C9.16649 16.873 8.92 17.0773 8.74926 17.3396C8.57852 17.602 8.49161 17.9101 8.50008 18.223C8.50854 18.5359 8.61197 18.8388 8.79664 19.0916C8.98131 19.3443 9.23848 19.5349 9.53402 19.6381L13.4 20.9801L15.495 27.9061C15.499 27.9201 15.512 27.9291 15.518 27.9421C15.5396 27.9973 15.5711 28.0481 15.611 28.0921C15.6716 28.1598 15.7499 28.2093 15.837 28.2351C15.847 28.2391 15.854 28.2481 15.864 28.2501H15.87L15.873 28.2511C15.9504 28.2677 16.0308 28.2636 16.106 28.2391C16.114 28.2371 16.122 28.2371 16.131 28.2341C16.2033 28.2087 16.2686 28.1669 16.322 28.1121C16.328 28.1051 16.338 28.1041 16.344 28.0981L19.357 24.7721L23.754 28.1771C24.021 28.3861 24.35 28.4991 24.689 28.4991C25.423 28.4991 26.056 27.9851 26.207 27.2681L29.469 11.2501C29.5244 10.9781 29.5048 10.6963 29.4126 10.4346C29.3203 10.1729 29.1587 9.94113 28.945 9.76405V9.76505ZM16.588 22.2951L15.881 25.7321L14.406 20.8541L21.721 17.0441L16.724 22.0421C16.6548 22.1112 16.6075 22.1992 16.588 22.2951ZM25.227 27.0671C25.2082 27.1577 25.1665 27.2421 25.1057 27.3119C25.0449 27.3818 24.9672 27.4349 24.88 27.4661C24.7949 27.4988 24.7028 27.5088 24.6127 27.4951C24.5226 27.4815 24.4376 27.4446 24.366 27.3881L19.603 23.6991C19.5035 23.6222 19.3786 23.5857 19.2533 23.5968C19.128 23.6079 19.0115 23.6659 18.927 23.7591L16.83 26.0701L17.536 22.6431L24.725 15.4531C24.8092 15.3686 24.8604 15.2568 24.8695 15.1379C24.8785 15.019 24.8447 14.9008 24.7742 14.8046C24.7037 14.7084 24.6012 14.6405 24.4851 14.6133C24.3689 14.5861 24.2469 14.6012 24.141 14.6561L13.778 20.0541L9.86102 18.6921C9.75717 18.6578 9.66659 18.5919 9.60188 18.5038C9.53718 18.4156 9.50158 18.3094 9.50002 18.2001C9.49504 18.0897 9.52452 17.9806 9.58437 17.8878C9.64422 17.7949 9.73147 17.723 9.83402 17.6821L27.748 10.4491C27.8398 10.4101 27.9407 10.3974 28.0393 10.4126C28.1378 10.4278 28.2302 10.4702 28.306 10.5351C28.3814 10.596 28.4383 10.6768 28.4705 10.7683C28.5026 10.8597 28.5087 10.9583 28.488 11.0531L25.227 27.0681V27.0671Z" fill="#0F805D"/>
</svg>
