<svg width="36" height="44" viewBox="0 0 36 44" fill="none" xmlns="http://www.w3.org/2000/svg">
<path d="M32.2854 3.13362C29.2015 17.5253 19.7368 12.6186 18.4505 10.0879C17.1649 7.55651 18.4072 -2.52065 32.2854 3.1329V3.13362Z" stroke="black" stroke-width="2" stroke-miterlimit="10" stroke-linecap="round" stroke-linejoin="round"/>
<path d="M24.9131 6.04562C22.6525 6.91373 19.7571 8.30979 18.4745 10.1298M3.80396 3.13362C6.88784 17.5253 16.3526 12.6186 17.6388 10.0879C18.9244 7.55651 17.6822 -2.52065 3.80396 3.1329V3.13362Z" stroke="black" stroke-width="2" stroke-miterlimit="10" stroke-linecap="round" stroke-linejoin="round"/>
<path d="M11.1764 6.04565C13.4376 6.91377 16.3323 8.30982 17.615 10.1298M6.40824 13.4441C6.40824 13.4441 4.54491 14.5628 4.12963 16.4023C3.71435 18.2418 4.12963 20.2561 4.12963 20.2561C4.12963 20.2561 1.20752 21.4615 1.20752 25.2524C1.20752 29.0434 3.67246 30.1152 3.67246 30.1152C3.67246 30.1152 3.70135 34.5893 6.45952 37.0023C9.21769 39.4152 12.1116 39.4268 12.1116 39.4268C12.1116 39.4268 13.6167 42.6103 18.0447 42.6103C22.4726 42.6103 23.9785 39.4268 23.9785 39.4268C23.9785 39.4268 26.9757 38.9891 29.6306 37.0023C32.2855 35.0162 32.2125 30.1152 32.2125 30.1152C32.2125 30.1152 34.8826 29.0441 34.8826 25.2524C34.8826 21.4608 31.9597 20.2568 31.9597 20.2568C31.9597 20.2568 32.3765 18.2418 31.9597 16.4023C31.543 14.5628 29.6811 13.4441 29.6811 13.4441" stroke="black" stroke-width="2" stroke-miterlimit="10" stroke-linecap="round" stroke-linejoin="round"/>
<path d="M22.5087 16.2875C22.5087 16.2875 20.6194 18.2859 18.288 18.2859M13.9063 16.2875C13.9063 16.2875 15.7956 18.2859 18.127 18.2859M28.1558 23.5451C28.1558 25.6338 26.3632 27.3266 24.1525 27.3266M19.9954 23.5451C19.9954 25.6338 21.7879 27.3266 23.9986 27.3266M16.4709 23.5451C16.4709 25.6338 14.6784 27.3266 12.4669 27.3266M8.30981 23.5451C8.30981 25.6338 10.1024 27.3266 12.3138 27.3266M22.2646 33.9003C21.5106 34.9035 19.9824 35.5896 18.2194 35.5896M13.9128 33.7775C14.6314 34.8464 16.2116 35.5896 18.0454 35.5896M13.876 34.0361C13.876 34.9316 13.3206 35.7398 12.433 36.3068M22.3079 34.0361C22.3079 35.0133 22.9673 35.885 23.9986 36.4541" stroke="black" stroke-width="2" stroke-miterlimit="10" stroke-linecap="round" stroke-linejoin="round"/>
<path d="M8.90778 25.8187C8.90778 27.5274 7.70817 28.9712 6.06078 29.4399M10.0641 16.2622C10.0641 18.4975 8.2715 20.3103 6.06006 20.3103M25.4914 16.2622C25.4914 18.4975 27.284 20.3103 29.4954 20.3103M27.57 25.8187C27.57 27.4509 28.6649 28.8412 30.1989 29.372" stroke="black" stroke-width="2" stroke-miterlimit="10" stroke-linecap="round" stroke-linejoin="round"/>
</svg>
