<svg viewBox="0 0 36 44" fill="none" xmlns="http://www.w3.org/2000/svg">
<path d="M6.40824 13.4441C6.40824 13.4441 4.54491 14.5628 4.12963 16.4023C3.71435 18.2418 4.12963 20.2561 4.12963 20.2561C4.12963 20.2561 1.20752 21.4615 1.20752 25.2524C1.20752 29.0434 3.67246 30.1151 3.67246 30.1151C3.67246 30.1151 3.70135 34.5893 6.45952 37.0023C9.21769 39.4152 12.1116 39.4268 12.1116 39.4268C12.1116 39.4268 13.6167 42.6103 18.0447 42.6103C22.4726 42.6103 23.9785 39.4268 23.9785 39.4268C23.9785 39.4268 26.9757 38.9891 29.6306 37.0023C32.2855 35.0162 32.2125 30.1151 32.2125 30.1151C32.2125 30.1151 34.8826 29.0441 34.8826 25.2524C34.8826 21.4608 31.9597 20.2568 31.9597 20.2568C31.9597 20.2568 32.3765 18.2418 31.9597 16.4023C31.543 14.5628 29.6811 13.4441 29.6811 13.4441" fill="#B22EC8"/>
<path d="M32.0457 19.1425C32.0457 11.401 25.7696 9.22058 18.0289 9.22058C10.2881 9.22058 4.01196 11.4017 4.01196 19.1425C4.01196 26.8832 10.2881 33.1594 18.0289 33.1594C25.7696 33.1594 32.0457 26.8832 32.0457 19.1425Z" fill="#B22EC8"/>
<path d="M18.4746 42.6002C18.4746 42.6002 22.2648 39.9497 22.0171 33.8534C23.6472 32.1576 24.1527 29.879 22.6722 27.11C25.1732 23.5451 24.9132 19.6885 21.9211 16.7649C23.1539 14.9853 22.5089 13.4441 21.1151 12.2864C21.1151 12.2864 25.127 14.2537 28.2001 11.4407C28.2001 11.4407 34.6589 16.0846 31.9599 20.2568C31.9599 20.2568 39.0912 25.0762 32.2127 30.1152C32.2127 30.1152 33.2173 37.796 24.1527 39.3957C24.1527 39.3957 21.7665 42.0968 18.4746 42.6002V42.6002Z" fill="#6A107A"/>
<path d="M32.2856 3.13362C29.2017 17.5253 19.737 12.6186 18.4507 10.0879C17.1652 7.55651 18.4074 -2.52065 32.2856 3.1329V3.13362Z" fill="currentColor"/>
<path d="M3.80396 3.13362C6.88784 17.5253 16.3526 12.6186 17.6388 10.0879C18.9244 7.55651 17.6822 -2.52065 3.80396 3.1329V3.13362Z" fill="currentColor"/>
<path d="M32.2855 3.13362C29.2016 17.5253 19.7369 12.6186 18.4506 10.0879C17.165 7.55651 18.4072 -2.52065 32.2855 3.1329V3.13362Z" stroke="black" stroke-width="2" stroke-miterlimit="10" stroke-linecap="round" stroke-linejoin="round"/>
<path d="M24.913 6.04562C22.6525 6.91373 19.7571 8.30979 18.4744 10.1298M3.80391 3.13362C6.8878 17.5253 16.3525 12.6186 17.6388 10.0879C18.9244 7.55651 17.6821 -2.52065 3.80391 3.1329V3.13362Z" stroke="black" stroke-width="2" stroke-miterlimit="10" stroke-linecap="round" stroke-linejoin="round"/>
<path d="M11.1764 6.04562C13.4376 6.91373 16.3323 8.30979 17.615 10.1298M6.40824 13.4441C6.40824 13.4441 4.54491 14.5628 4.12963 16.4023C3.71435 18.2418 4.12963 20.2561 4.12963 20.2561C4.12963 20.2561 1.20752 21.4615 1.20752 25.2524C1.20752 29.0433 3.67246 30.1151 3.67246 30.1151C3.67246 30.1151 3.70135 34.5893 6.45952 37.0022C9.21769 39.4152 12.1116 39.4267 12.1116 39.4267C12.1116 39.4267 13.6167 42.6103 18.0447 42.6103C22.4726 42.6103 23.9785 39.4267 23.9785 39.4267C23.9785 39.4267 26.9757 38.9891 29.6306 37.0022C32.2855 35.0161 32.2125 30.1151 32.2125 30.1151C32.2125 30.1151 34.8826 29.0441 34.8826 25.2524C34.8826 21.4607 31.9597 20.2568 31.9597 20.2568C31.9597 20.2568 32.3765 18.2418 31.9597 16.4023C31.543 14.5628 29.6811 13.4441 29.6811 13.4441" stroke="black" stroke-width="2" stroke-miterlimit="10" stroke-linecap="round" stroke-linejoin="round"/>
<path d="M22.5087 16.2875C22.5087 16.2875 20.6194 18.2858 18.2881 18.2858M13.9064 16.2875C13.9064 16.2875 15.7957 18.2858 18.127 18.2858M28.1558 23.5451C28.1558 25.6337 26.3632 27.3266 24.1525 27.3266M19.9954 23.5451C19.9954 25.6337 21.788 27.3266 23.9987 27.3266M16.471 23.5451C16.471 25.6337 14.6784 27.3266 12.467 27.3266M8.30985 23.5451C8.30985 25.6337 10.1024 27.3266 12.3139 27.3266M22.2646 33.9003C21.5106 34.9035 19.9824 35.5896 18.2195 35.5896M13.9129 33.7775C14.6315 34.8464 16.2117 35.5896 18.0454 35.5896M13.876 34.0361C13.876 34.9316 13.3206 35.7398 12.433 36.3067M22.308 34.0361C22.308 35.0132 22.9674 35.885 23.9987 36.4541" stroke="black" stroke-width="2" stroke-miterlimit="10" stroke-linecap="round" stroke-linejoin="round"/>
<path d="M8.90785 25.8186C8.90785 27.5274 7.70824 28.9711 6.06085 29.4398M10.0641 16.2622C10.0641 18.4975 8.27158 20.3102 6.06013 20.3102M25.4915 16.2622C25.4915 18.4975 27.2841 20.3102 29.4955 20.3102M27.5701 25.8186C27.5701 27.4508 28.665 28.8411 30.199 29.372" stroke="black" stroke-width="2" stroke-miterlimit="10" stroke-linecap="round" stroke-linejoin="round"/>
</svg>
