<svg width="26" height="32" viewBox="0 0 26 32" fill="none" xmlns="http://www.w3.org/2000/svg">
<path d="M13.145 0H13.0483L0 1.31378V24.4927L13.0483 32L26 24.4927V1.31378L13.145 0ZM24.1636 11.3548L13.0483 4.97361V4.87977H12.9517L12.855 4.78592V4.87977L1.83643 11.3548V2.90909L12.9517 1.78299L24.1636 2.90909V11.3548ZM12.9517 6.38123L24.0669 12.6686L19.7175 15.1085L12.855 11.1672V12.4809L18.5576 15.7654L17.6877 16.2346L12.855 13.4194V14.7331L16.5279 16.8915L15.7546 17.3607L12.855 15.6716V16.9853L14.6915 18.0176L12.9517 19.0499L1.93309 12.7625L12.9517 6.38123ZM1.83643 14.1701L12.855 20.5513V21.4897L5.21933 17.0792V18.393L12.9517 22.8974V23.9296L5.21933 19.5191V20.8328L12.9517 25.3372L20.7807 20.739V15.8592L24.0669 13.9824V23.3666L12.9517 29.8416L1.83643 23.4604V14.1701Z" fill="black"/>
</svg>
