<svg width="66" height="66" viewBox="0 0 66 66" fill="none" xmlns="http://www.w3.org/2000/svg">
<rect width="66" height="66" fill="white"/>
<path d="M20.0708 22.2816C20.0708 22.2816 17.9925 23.5725 17.5293 25.695C17.0661 27.8175 17.5293 30.1416 17.5293 30.1416C17.5293 30.1416 14.27 31.5325 14.27 35.9066C14.27 40.2808 17.0194 41.5174 17.0194 41.5174C17.0194 41.5174 17.0516 46.68 20.128 49.4641C23.2044 52.2483 26.4323 52.2616 26.4323 52.2616C26.4323 52.2616 28.1111 55.9349 33.0499 55.9349C37.9888 55.9349 39.6684 52.2616 39.6684 52.2616C39.6684 52.2616 43.0114 51.7566 45.9727 49.4641C48.9339 47.1725 48.8525 41.5174 48.8525 41.5174C48.8525 41.5174 51.8307 40.2816 51.8307 35.9066C51.8307 31.5316 48.5706 30.1425 48.5706 30.1425C48.5706 30.1425 49.0354 27.8175 48.5706 25.695C48.1058 23.5725 46.029 22.2816 46.029 22.2816" fill="#B22EC8"/>
<path d="M48.6664 28.8567C48.6664 19.9242 41.6661 17.4083 33.0322 17.4083C24.3982 17.4083 17.3979 19.925 17.3979 28.8567C17.3979 37.7883 24.3982 45.03 33.0322 45.03C41.6661 45.03 48.6664 37.7883 48.6664 28.8567Z" fill="#B22EC8"/>
<path d="M33.5293 55.9233C33.5293 55.9233 37.7569 52.865 37.4805 45.8308C39.2987 43.8741 39.8626 41.245 38.2112 38.05C41.0008 33.9366 40.7108 29.4866 37.3734 26.1133C38.7485 24.06 38.0291 22.2816 36.4744 20.9458C36.4744 20.9458 40.9493 23.2158 44.3769 19.97C44.3769 19.97 51.581 25.3283 48.5706 30.1425C48.5706 30.1425 56.5247 35.7033 48.8526 41.5175C48.8526 41.5175 49.9731 50.38 39.8626 52.2258C39.8626 52.2258 37.201 55.3425 33.5293 55.9233V55.9233Z" fill="#6A107A"/>
<path d="M48.9339 10.385C45.4942 26.9908 34.9374 21.3291 33.5027 18.4091C32.0688 15.4883 33.4544 3.8608 48.9339 10.3841V10.385Z" fill="#0F805D"/>
<path d="M17.166 10.385C20.6057 26.9908 31.1625 21.3291 32.5972 18.4091C34.0311 15.4883 32.6456 3.8608 17.166 10.3841V10.385Z" fill="#0F805D"/>
<path d="M48.9339 10.385C45.4942 26.9908 34.9374 21.3291 33.5027 18.4091C32.0688 15.4883 33.4543 3.8608 48.9339 10.3841V10.385Z" stroke="black" stroke-width="2" stroke-miterlimit="10" stroke-linecap="round" stroke-linejoin="round"/>
<path d="M40.7108 13.745C38.1894 14.7466 34.9599 16.3575 33.5292 18.4575M17.166 10.385C20.6057 26.9908 31.1625 21.3291 32.5972 18.4091C34.0311 15.4883 32.6455 3.8608 17.166 10.3841V10.385Z" stroke="black" stroke-width="2" stroke-miterlimit="10" stroke-linecap="round" stroke-linejoin="round"/>
<path d="M25.3891 13.745C27.9113 14.7466 31.14 16.3575 32.5706 18.4575M20.0708 22.2816C20.0708 22.2816 17.9925 23.5725 17.5293 25.695C17.0661 27.8175 17.5293 30.1416 17.5293 30.1416C17.5293 30.1416 14.27 31.5325 14.27 35.9066C14.27 40.2808 17.0194 41.5175 17.0194 41.5175C17.0194 41.5175 17.0516 46.68 20.128 49.4641C23.2044 52.2483 26.4323 52.2616 26.4323 52.2616C26.4323 52.2616 28.1111 55.935 33.0499 55.935C37.9888 55.935 39.6684 52.2616 39.6684 52.2616C39.6684 52.2616 43.0114 51.7566 45.9727 49.4641C48.9339 47.1725 48.8525 41.5175 48.8525 41.5175C48.8525 41.5175 51.8307 40.2816 51.8307 35.9066C51.8307 31.5316 48.5706 30.1425 48.5706 30.1425C48.5706 30.1425 49.0354 27.8175 48.5706 25.695C48.1058 23.5725 46.029 22.2816 46.029 22.2816" stroke="black" stroke-width="2" stroke-miterlimit="10" stroke-linecap="round" stroke-linejoin="round"/>
<path d="M38.0291 25.5625C38.0291 25.5625 35.9217 27.8683 33.3214 27.8683M28.4341 25.5625C28.4341 25.5625 30.5414 27.8683 33.1418 27.8683M44.3277 33.9366C44.3277 36.3466 42.3283 38.3 39.8625 38.3M35.2257 33.9366C35.2257 36.3466 37.2251 38.3 39.6909 38.3M31.2946 33.9366C31.2946 36.3466 29.2952 38.3 26.8286 38.3M22.1919 33.9366C22.1919 36.3466 24.1912 38.3 26.6579 38.3M37.7568 45.885C36.9158 47.0425 35.2112 47.8341 33.2449 47.8341M28.4414 45.7433C29.2429 46.9766 31.0054 47.8341 33.0507 47.8341M28.4003 46.0416C28.4003 47.075 27.7808 48.0075 26.7908 48.6616M37.8051 46.0416C37.8051 47.1691 38.5406 48.175 39.6909 48.8316" stroke="black" stroke-width="2" stroke-miterlimit="10" stroke-linecap="round" stroke-linejoin="round"/>
<path d="M22.8589 36.56C22.8589 38.5316 21.5208 40.1975 19.6834 40.7383M24.1485 25.5333C24.1485 28.1125 22.1492 30.2041 19.6825 30.2041M41.356 25.5333C41.356 28.1125 43.3554 30.2041 45.822 30.2041M43.6744 36.56C43.6744 38.4433 44.8956 40.0475 46.6066 40.66" stroke="black" stroke-width="2" stroke-miterlimit="10" stroke-linecap="round" stroke-linejoin="round"/>
</svg>
