<svg width="16" height="24" viewBox="0 0 16 24" fill="none" xmlns="http://www.w3.org/2000/svg">
<path d="M13.4867 5.97864C12.2467 3.87777 10.4863 2.13181 8.37537 0.909113L7.99981 0.691895L7.62424 0.909113C5.47734 2.14812 3.69463 3.93071 2.45548 6.07753C1.21633 8.22434 0.564451 10.6597 0.565431 13.1384C0.565431 13.2999 0.568243 13.4639 0.573728 13.6259C0.648353 15.8223 1.48831 17.6704 3.00279 18.9705C4.16173 19.9654 5.64832 20.5728 7.24999 20.7177V23.3083H8.74999V11.3083H7.24981V19.2081C4.71556 18.9145 2.19326 17.1243 2.07274 13.5749C2.06777 13.4298 2.06524 13.283 2.06524 13.1384C2.06971 10.9981 2.61633 8.89377 3.65409 7.02185C4.69185 5.14992 6.18693 3.57141 7.99981 2.43363C9.81264 3.57144 11.3077 5.14995 12.3454 7.02188C13.3831 8.8938 13.9297 10.9981 13.9342 13.1384C13.9342 13.283 13.9317 13.4298 13.9267 13.575C13.8303 16.4143 12.1967 18.1278 10.2496 18.8501V20.4376C11.26 20.1512 12.1969 19.6509 12.9968 18.9704C14.5113 17.6703 15.3513 15.8222 15.4259 13.6259C15.4314 13.4639 15.4342 13.2999 15.4342 13.1384C15.4355 10.6208 14.7631 8.14868 13.4867 5.97864V5.97864Z" fill="#6A107A"/>
</svg>
