<svg width="16" height="24" viewBox="0 0 16 24" fill="none" xmlns="http://www.w3.org/2000/svg">
<path d="M13.4869 5.97852C12.2469 3.87765 10.4865 2.13169 8.37556 0.908991L8 0.691772L7.62443 0.908991C5.47754 2.148 3.69482 3.93059 2.45567 6.07741C1.21652 8.22422 0.564641 10.6595 0.565622 13.1383C0.565622 13.2998 0.568434 13.4638 0.573918 13.6258C0.648543 15.8222 1.4885 17.6703 3.00298 18.9704C4.16192 19.9653 5.64851 20.5727 7.25018 20.7176V23.3082H8.75018V11.3082H7.25V19.208C4.71575 18.9144 2.19345 17.1241 2.07293 13.5748C2.06797 13.4297 2.06543 13.2829 2.06543 13.1383C2.0699 10.998 2.61652 8.89365 3.65428 7.02172C4.69205 5.1498 6.18713 3.57129 8 2.43351C9.81283 3.57131 11.3079 5.14983 12.3456 7.02176C13.3833 8.89368 13.9299 10.998 13.9344 13.1383C13.9344 13.2829 13.9318 13.4297 13.9269 13.5749C13.8305 16.4142 12.1969 18.1277 10.2498 18.85V20.4375C11.2602 20.1511 12.1971 19.6507 12.997 18.9703C14.5115 17.6702 15.3515 15.8221 15.4261 13.6258C15.4316 13.4638 15.4344 13.2997 15.4344 13.1383C15.4357 10.6207 14.7633 8.14856 13.4869 5.97852Z" fill="black"/>
</svg>
